<svg xmlns="http://www.w3.org/2000/svg" xmlns:xlink="http://www.w3.org/1999/xlink" width="500" zoomAndPan="magnify" viewBox="0 0 375 374.999991" height="500" preserveAspectRatio="xMidYMid meet" version="1.0"><defs><g/></defs><g fill="#9be8e6" fill-opacity="1"><g transform="translate(46.555695, 347.037005)"><g><path d="M 142.0625 -191.390625 C 143.570312 -191.390625 144.851562 -192.066406 145.90625 -193.421875 C 146.96875 -194.773438 147.953125 -196.582031 148.859375 -198.84375 C 149.765625 -201.113281 150.820312 -203.15625 152.03125 -204.96875 L 176.90625 -245.6875 C 191.082031 -268.90625 201.941406 -285.644531 209.484375 -295.90625 C 212.203125 -299.519531 214.914062 -304.195312 217.625 -309.9375 C 222.15625 -318.675781 225.773438 -323.800781 228.484375 -325.3125 C 233.921875 -327.726562 239.351562 -328.9375 244.78125 -328.9375 C 249.90625 -328.9375 253.75 -328.03125 256.3125 -326.21875 C 258.875 -324.40625 259.550781 -321.84375 258.34375 -318.53125 C 256.84375 -314 252.171875 -306.457031 244.328125 -295.90625 C 239.492188 -289.875 232.40625 -279.617188 223.0625 -265.140625 L 211.75 -247.9375 C 208.125 -242.8125 201.03125 -230.144531 190.46875 -209.9375 C 179.914062 -189.726562 172.226562 -174.796875 167.40625 -165.140625 C 165.289062 -162.128906 164.234375 -159.566406 164.234375 -157.453125 C 164.234375 -155.941406 165.289062 -152.773438 167.40625 -147.953125 C 168.3125 -146.140625 172.535156 -139.203125 180.078125 -127.140625 C 181.585938 -124.722656 183.242188 -122.15625 185.046875 -119.4375 C 186.859375 -116.726562 188.519531 -113.863281 190.03125 -110.84375 C 202.695312 -87.925781 213.101562 -71.035156 221.25 -60.171875 C 226.976562 -51.128906 233.007812 -41.328125 239.34375 -30.765625 C 245.675781 -20.210938 250.65625 -11.765625 254.28125 -5.421875 C 255.488281 -3.316406 256.09375 -1.660156 256.09375 -0.453125 C 256.09375 1.660156 253.375 2.71875 247.9375 2.71875 L 219.4375 2.265625 C 217.625 1.960938 216.265625 1.28125 215.359375 0.21875 C 214.460938 -0.832031 213.410156 -2.863281 212.203125 -5.875 L 207.21875 -15.828125 C 205.71875 -19.148438 201.644531 -25.335938 195 -34.390625 C 187.46875 -44.640625 182.492188 -52.628906 180.078125 -58.359375 C 177.054688 -63.796875 171.398438 -73.523438 163.109375 -87.546875 C 154.816406 -101.578125 148.40625 -112.363281 143.875 -119.90625 C 141.769531 -122.914062 139.960938 -124.421875 138.453125 -124.421875 C 137.242188 -124.421875 135.28125 -122.613281 132.5625 -119 C 128.34375 -113.863281 123.972656 -108.128906 119.453125 -101.796875 C 111.910156 -91.546875 106.328125 -84.15625 102.703125 -79.625 C 98.484375 -74.195312 92.828125 -65.601562 85.734375 -53.84375 C 78.648438 -42.082031 73.898438 -33.179688 71.484375 -27.140625 C 68.773438 -21.410156 65.082031 -15.679688 60.40625 -9.953125 C 55.726562 -4.222656 52.03125 -0.753906 49.3125 0.453125 C 46.90625 1.054688 44.34375 1.359375 41.625 1.359375 C 36.195312 1.359375 30.769531 0.601562 25.34375 -0.90625 C 22.625 -1.8125 21.265625 -3.171875 21.265625 -4.984375 C 21.265625 -6.484375 22.164062 -8.738281 23.96875 -11.75 C 25.78125 -14.769531 27.140625 -16.882812 28.046875 -18.09375 C 29.859375 -21.113281 34.757812 -28.128906 42.75 -39.140625 C 50.75 -50.148438 56.554688 -58.21875 60.171875 -63.34375 C 60.171875 -63.34375 65 -69.976562 74.65625 -83.25 C 78.269531 -88.070312 85.660156 -98.929688 96.828125 -115.828125 C 103.765625 -127.285156 109.34375 -135.582031 113.5625 -140.71875 C 117.1875 -145.84375 119 -150.515625 119 -154.734375 C 119 -157.753906 117.941406 -161.375 115.828125 -165.59375 C 114.316406 -168.613281 109.1875 -177.515625 100.4375 -192.296875 L 79.171875 -230.75 C 75.253906 -238.289062 63.945312 -256.539062 45.25 -285.5 C 36.5 -298.769531 30.765625 -307.816406 28.046875 -312.640625 C 25.941406 -315.960938 24.890625 -318.679688 24.890625 -320.796875 C 24.890625 -323.503906 26.546875 -324.859375 29.859375 -324.859375 C 34.679688 -324.859375 38.453125 -325.007812 41.171875 -325.3125 L 54.296875 -325.765625 C 56.703125 -325.460938 58.882812 -324.253906 60.84375 -322.140625 C 62.8125 -320.035156 65.15625 -316.71875 67.875 -312.1875 L 74.203125 -302.6875 L 79.171875 -294.546875 C 90.035156 -277.347656 98.332031 -263.925781 104.0625 -254.28125 C 109.488281 -244.625 117.484375 -231.050781 128.046875 -213.5625 C 132.867188 -205.414062 137.539062 -198.023438 142.0625 -191.390625 Z M 142.0625 -191.390625 "/></g></g></g></svg>