<svg xmlns="http://www.w3.org/2000/svg" xmlns:xlink="http://www.w3.org/1999/xlink" width="500" zoomAndPan="magnify" viewBox="0 0 375 374.999991" height="500" preserveAspectRatio="xMidYMid meet" version="1.0"><defs><clipPath id="3535901377"><path d="M 1 37.5 L 375 37.5 L 375 264 L 1 264 Z M 1 37.5 " clip-rule="nonzero"/></clipPath><clipPath id="0820bf5615"><path d="M 0 230 L 375 230 L 375 326.25 L 0 326.25 Z M 0 230 " clip-rule="nonzero"/></clipPath></defs><path fill="#83f8f5" d="M 374.675781 280.710938 L 374.675781 167.023438 L 278.042969 223.867188 Z M 374.675781 280.710938 " fill-opacity="1" fill-rule="nonzero"/><g clip-path="url(#3535901377)"><path fill="#83f8f5" d="M 335.699219 119.921875 L 187.5 37.5 L 39.300781 119.921875 C 36.050781 121.546875 33.617188 123.171875 30.773438 124.390625 C 16.15625 132.105469 2.757812 139.007812 1.132812 153.21875 L 111.574219 218.585938 L 187.5 263.25 L 263.425781 218.585938 L 374.273438 153.21875 C 372.648438 139.414062 358.84375 132.105469 344.632812 124.390625 C 341.789062 123.171875 338.949219 121.953125 335.699219 119.921875 Z M 243.9375 197.472656 C 240.285156 201.128906 235.816406 204.375 230.539062 207.21875 C 225.261719 209.65625 219.574219 211.683594 213.484375 213.308594 C 206.988281 214.527344 200.492188 215.339844 192.777344 215.339844 C 181.816406 215.339844 171.664062 213.714844 162.734375 210.871094 C 153.800781 208.03125 146.085938 203.5625 139.996094 198.285156 C 133.90625 192.601562 129.4375 186.105469 126.191406 178.390625 C 122.941406 170.675781 121.316406 162.148438 121.316406 153.21875 C 121.316406 143.472656 122.941406 134.539062 126.191406 126.011719 C 129.4375 117.488281 133.90625 110.179688 139.996094 104.089844 C 146.085938 97.996094 153.394531 93.125 162.328125 89.472656 C 171.257812 85.816406 180.597656 84.191406 191.152344 84.191406 C 199.679688 84.191406 207.800781 85.410156 214.703125 87.847656 C 222.011719 90.285156 228.101562 93.9375 233.378906 98.808594 C 238.660156 103.683594 242.3125 108.960938 245.15625 115.457031 C 247.996094 121.953125 249.214844 128.855469 249.214844 136.976562 C 249.214844 143.066406 247.996094 149.15625 245.96875 154.839844 C 243.9375 160.527344 240.6875 165.804688 236.628906 170.675781 C 232.570312 175.140625 227.695312 178.796875 222.417969 181.640625 C 216.734375 184.480469 211.050781 185.699219 204.554688 185.699219 C 200.898438 185.699219 198.054688 184.886719 196.027344 183.667969 C 193.996094 182.449219 192.777344 180.421875 191.964844 177.578125 C 187.90625 181.640625 183.441406 184.074219 178.160156 184.886719 C 172.882812 186.105469 168.011719 185.292969 163.136719 183.667969 C 158.671875 182.042969 155.019531 178.796875 152.175781 173.925781 C 149.332031 169.050781 147.710938 163.367188 147.710938 156.464844 C 147.710938 149.15625 149.332031 142.253906 152.175781 135.351562 C 155.425781 128.449219 159.484375 122.765625 165.167969 118.300781 C 170.851562 113.832031 177.347656 111.800781 184.25 111.800781 C 192.371094 111.800781 198.460938 115.050781 202.117188 121.140625 L 203.742188 113.425781 L 221.605469 113.425781 L 211.457031 162.148438 C 210.644531 165.398438 210.644531 167.429688 210.644531 168.238281 C 210.644531 169.457031 211.050781 170.269531 211.457031 170.675781 C 211.863281 171.082031 212.671875 171.488281 213.484375 171.488281 C 215.921875 171.488281 219.171875 169.863281 222.824219 166.617188 C 226.882812 163.367188 230.132812 158.902344 232.976562 153.625 C 235.816406 147.9375 237.441406 142.253906 237.441406 135.351562 C 237.441406 130.074219 236.222656 124.796875 234.191406 119.921875 C 232.164062 115.050781 229.320312 110.992188 225.261719 107.335938 C 221.199219 103.683594 216.734375 100.839844 210.644531 99.214844 C 204.960938 97.1875 198.460938 96.375 191.152344 96.375 C 183.847656 96.375 176.941406 97.1875 170.851562 99.214844 C 164.761719 101.246094 159.078125 104.089844 154.613281 107.335938 C 149.738281 110.992188 146.085938 115.457031 142.835938 120.734375 C 139.996094 125.203125 137.964844 130.480469 136.339844 136.164062 C 134.714844 141.847656 134.3125 147.53125 134.3125 153.21875 C 134.3125 160.929688 135.933594 168.238281 139.183594 174.738281 C 142.429688 181.234375 146.898438 186.511719 152.582031 190.976562 C 158.671875 195.445312 165.574219 198.285156 174.101562 200.316406 C 182.628906 202.347656 191.964844 202.347656 202.523438 201.535156 C 211.050781 200.722656 217.953125 198.691406 224.042969 195.851562 C 229.726562 193.007812 235.003906 188.949219 239.066406 184.074219 L 253.683594 184.074219 C 250.839844 189.351562 247.996094 193.820312 243.9375 197.472656 Z M 243.9375 197.472656 " fill-opacity="1" fill-rule="nonzero"/></g><path fill="#83f8f5" d="M 195.214844 128.855469 C 193.996094 127.230469 192.777344 126.417969 191.152344 125.609375 C 189.53125 124.796875 187.90625 124.390625 185.875 124.390625 C 181.816406 124.390625 178.160156 126.011719 174.914062 129.261719 C 171.664062 132.511719 169.230469 136.570312 167.605469 141.441406 C 165.980469 146.316406 165.167969 151.59375 165.167969 156.871094 C 165.167969 162.148438 166.386719 166.617188 168.417969 169.457031 C 170.851562 172.300781 173.695312 173.925781 177.347656 173.925781 C 181.816406 173.925781 185.46875 172.300781 188.71875 168.644531 C 191.964844 165.398438 194.402344 160.929688 196.027344 155.652344 C 197.652344 150.375 198.460938 145.503906 198.460938 140.628906 C 198.460938 138.195312 198.058594 136.164062 197.652344 134.132812 C 197.246094 132.105469 196.433594 130.074219 195.214844 128.855469 Z M 195.214844 128.855469 " fill-opacity="1" fill-rule="nonzero"/><g clip-path="url(#0820bf5615)"><path fill="#83f8f5" d="M 190.75 275.023438 C 189.125 276.242188 186.6875 276.242188 184.65625 275.023438 L 108.730469 230.363281 L 0.726562 294.109375 C 1.539062 302.632812 5.195312 310.347656 11.285156 316.03125 C 17.78125 322.53125 26.714844 326.589844 36.457031 326.589844 L 338.949219 326.589844 C 348.691406 326.589844 357.625 322.53125 364.121094 316.03125 C 369.804688 310.347656 373.867188 302.632812 374.675781 294.109375 L 266.269531 230.363281 Z M 190.75 275.023438 " fill-opacity="1" fill-rule="nonzero"/></g><path fill="#83f8f5" d="M 0.324219 167.023438 L 0.324219 280.710938 L 96.957031 223.867188 Z M 0.324219 167.023438 " fill-opacity="1" fill-rule="nonzero"/></svg>