<svg xmlns="http://www.w3.org/2000/svg" xmlns:xlink="http://www.w3.org/1999/xlink" width="500" zoomAndPan="magnify" viewBox="0 0 375 374.999991" height="500" preserveAspectRatio="xMidYMid meet" version="1.0"><defs><g/></defs><g fill="#83f8f5" fill-opacity="1"><g transform="translate(85.879709, 68.014726)"><g><path d="M -69.21875 46.015625 C -69.46875 41.367188 -69.335938 35.179688 -68.828125 27.453125 C -68.566406 24.359375 -67.789062 22.226562 -66.5 21.0625 C -65.21875 19.90625 -63.414062 19.328125 -61.09375 19.328125 C -59.539062 19.328125 -57.863281 19.457031 -56.0625 19.71875 C -54.257812 19.976562 -52.328125 20.238281 -50.265625 20.5 C -23.710938 23.332031 4.125 24.875 33.25 25.125 C 41.757812 25.382812 54.519531 25.515625 71.53125 25.515625 L 129.140625 25.125 C 133.785156 24.875 138.941406 24.75 144.609375 24.75 L 163.9375 24.359375 C 179.925781 23.847656 192.171875 23.59375 200.671875 23.59375 C 206.859375 23.59375 210.46875 23.71875 211.5 23.96875 C 213.050781 24.226562 216.914062 24.359375 223.09375 24.359375 L 249.78125 23.96875 C 253.644531 23.71875 258.15625 23.59375 263.3125 23.59375 C 267.4375 23.332031 270.078125 24.234375 271.234375 26.296875 C 272.398438 28.359375 272.851562 31.191406 272.59375 34.796875 L 272.59375 57.609375 C 272.851562 61.222656 271.691406 63.546875 269.109375 64.578125 C 266.535156 65.609375 262.671875 66.25 257.515625 66.5 C 255.191406 67.019531 249.265625 66.765625 239.734375 65.734375 C 230.453125 64.703125 222.847656 64.1875 216.921875 64.1875 C 205.054688 64.1875 183.53125 63.285156 152.34375 61.484375 C 142.03125 61.222656 132.425781 60.832031 123.53125 60.3125 C 114.644531 59.800781 107.75 59.546875 102.84375 59.546875 L 56.453125 58.765625 L 12.375 58 L -13.53125 57.21875 L -30.9375 56.453125 L -51.03125 56.453125 C -59.539062 56.453125 -64.828125 55.484375 -66.890625 53.546875 C -68.953125 51.617188 -69.726562 49.109375 -69.21875 46.015625 Z M -69.21875 46.015625 "/></g></g></g><g fill="#83f8f5" fill-opacity="1"><g transform="translate(85.879709, 147.664744)"><g><path d="M -69.21875 46.015625 C -69.46875 41.367188 -69.335938 35.179688 -68.828125 27.453125 C -68.566406 24.359375 -67.789062 22.226562 -66.5 21.0625 C -65.21875 19.90625 -63.414062 19.328125 -61.09375 19.328125 C -59.539062 19.328125 -57.863281 19.457031 -56.0625 19.71875 C -54.257812 19.976562 -52.328125 20.238281 -50.265625 20.5 C -23.710938 23.332031 4.125 24.875 33.25 25.125 C 41.757812 25.382812 54.519531 25.515625 71.53125 25.515625 L 129.140625 25.125 C 133.785156 24.875 138.941406 24.75 144.609375 24.75 L 163.9375 24.359375 C 179.925781 23.847656 192.171875 23.59375 200.671875 23.59375 C 206.859375 23.59375 210.46875 23.71875 211.5 23.96875 C 213.050781 24.226562 216.914062 24.359375 223.09375 24.359375 L 249.78125 23.96875 C 253.644531 23.71875 258.15625 23.59375 263.3125 23.59375 C 267.4375 23.332031 270.078125 24.234375 271.234375 26.296875 C 272.398438 28.359375 272.851562 31.191406 272.59375 34.796875 L 272.59375 57.609375 C 272.851562 61.222656 271.691406 63.546875 269.109375 64.578125 C 266.535156 65.609375 262.671875 66.25 257.515625 66.5 C 255.191406 67.019531 249.265625 66.765625 239.734375 65.734375 C 230.453125 64.703125 222.847656 64.1875 216.921875 64.1875 C 205.054688 64.1875 183.53125 63.285156 152.34375 61.484375 C 142.03125 61.222656 132.425781 60.832031 123.53125 60.3125 C 114.644531 59.800781 107.75 59.546875 102.84375 59.546875 L 56.453125 58.765625 L 12.375 58 L -13.53125 57.21875 L -30.9375 56.453125 L -51.03125 56.453125 C -59.539062 56.453125 -64.828125 55.484375 -66.890625 53.546875 C -68.953125 51.617188 -69.726562 49.109375 -69.21875 46.015625 Z M -69.21875 46.015625 "/></g></g></g><g fill="#83f8f5" fill-opacity="1"><g transform="translate(85.879709, 227.314763)"><g><path d="M -69.21875 46.015625 C -69.46875 41.367188 -69.335938 35.179688 -68.828125 27.453125 C -68.566406 24.359375 -67.789062 22.226562 -66.5 21.0625 C -65.21875 19.90625 -63.414062 19.328125 -61.09375 19.328125 C -59.539062 19.328125 -57.863281 19.457031 -56.0625 19.71875 C -54.257812 19.976562 -52.328125 20.238281 -50.265625 20.5 C -23.710938 23.332031 4.125 24.875 33.25 25.125 C 41.757812 25.382812 54.519531 25.515625 71.53125 25.515625 L 129.140625 25.125 C 133.785156 24.875 138.941406 24.75 144.609375 24.75 L 163.9375 24.359375 C 179.925781 23.847656 192.171875 23.59375 200.671875 23.59375 C 206.859375 23.59375 210.46875 23.71875 211.5 23.96875 C 213.050781 24.226562 216.914062 24.359375 223.09375 24.359375 L 249.78125 23.96875 C 253.644531 23.71875 258.15625 23.59375 263.3125 23.59375 C 267.4375 23.332031 270.078125 24.234375 271.234375 26.296875 C 272.398438 28.359375 272.851562 31.191406 272.59375 34.796875 L 272.59375 57.609375 C 272.851562 61.222656 271.691406 63.546875 269.109375 64.578125 C 266.535156 65.609375 262.671875 66.25 257.515625 66.5 C 255.191406 67.019531 249.265625 66.765625 239.734375 65.734375 C 230.453125 64.703125 222.847656 64.1875 216.921875 64.1875 C 205.054688 64.1875 183.53125 63.285156 152.34375 61.484375 C 142.03125 61.222656 132.425781 60.832031 123.53125 60.3125 C 114.644531 59.800781 107.75 59.546875 102.84375 59.546875 L 56.453125 58.765625 L 12.375 58 L -13.53125 57.21875 L -30.9375 56.453125 L -51.03125 56.453125 C -59.539062 56.453125 -64.828125 55.484375 -66.890625 53.546875 C -68.953125 51.617188 -69.726562 49.109375 -69.21875 46.015625 Z M -69.21875 46.015625 "/></g></g></g></svg>