<svg xmlns="http://www.w3.org/2000/svg" xmlns:xlink="http://www.w3.org/1999/xlink" width="500" zoomAndPan="magnify" viewBox="0 0 375 374.999991" height="500" preserveAspectRatio="xMidYMid meet" version="1.0"><defs><clipPath id="61f0ce4bfe"><path d="M 35.367188 0 L 339 0 L 339 375 L 35.367188 375 Z M 35.367188 0 " clip-rule="nonzero"/></clipPath></defs><g clip-path="url(#61f0ce4bfe)"><path fill="#ccb2ff" d="M 302.878906 -0.644531 L 70.820312 -0.644531 C 51.269531 -0.644531 35.367188 15.257812 35.367188 34.808594 L 35.367188 344.222656 C 35.367188 363.773438 51.269531 379.675781 70.820312 379.675781 L 302.878906 379.675781 C 322.433594 379.675781 338.335938 363.773438 338.335938 344.222656 L 338.335938 34.808594 C 338.335938 15.257812 322.433594 -0.644531 302.878906 -0.644531 Z M 196.15625 51.617188 C 201.109375 49.679688 206.742188 52.03125 208.71875 57.003906 L 225.527344 99.019531 L 242.335938 57.003906 C 244.324219 52.042969 249.957031 49.691406 254.898438 51.617188 C 259.859375 53.59375 262.269531 59.222656 260.289062 64.179688 L 234.503906 128.644531 C 233.039062 132.320312 229.480469 134.722656 225.527344 134.722656 C 221.574219 134.722656 218.015625 132.320312 216.550781 128.644531 L 190.765625 64.179688 C 188.785156 59.222656 191.195312 53.59375 196.15625 51.617188 Z M 146.34375 50.925781 C 155.835938 50.925781 164.867188 54.914062 171.785156 62.167969 C 175.476562 66.03125 175.332031 72.152344 171.472656 75.839844 C 167.605469 79.527344 161.488281 79.378906 157.800781 75.511719 C 155.507812 73.121094 151.667969 70.261719 146.34375 70.261719 C 136.441406 70.261719 128.390625 80.386719 128.390625 92.824219 C 128.390625 105.261719 136.441406 115.386719 146.34375 115.386719 C 150.507812 115.386719 154.582031 113.523438 157.8125 110.121094 C 161.488281 106.269531 167.625 106.105469 171.476562 109.796875 C 175.351562 113.472656 175.496094 119.589844 171.8125 123.46875 C 164.898438 130.71875 155.855469 134.722656 146.34375 134.722656 C 125.78125 134.722656 109.050781 115.925781 109.050781 92.824219 C 109.050781 69.722656 125.78125 50.925781 146.34375 50.925781 Z M 186.851562 328.105469 L 96.605469 328.105469 C 91.265625 328.105469 86.9375 323.777344 86.9375 318.4375 C 86.9375 313.097656 91.265625 308.769531 96.605469 308.769531 L 186.851562 308.769531 C 192.1875 308.769531 196.519531 313.097656 196.519531 318.4375 C 196.519531 323.777344 192.1875 328.105469 186.851562 328.105469 Z M 277.097656 263.644531 L 96.605469 263.644531 C 91.265625 263.644531 86.9375 259.316406 86.9375 253.976562 C 86.9375 248.636719 91.265625 244.308594 96.605469 244.308594 L 277.097656 244.308594 C 282.433594 244.308594 286.765625 248.636719 286.765625 253.976562 C 286.765625 259.316406 282.433594 263.644531 277.097656 263.644531 Z M 277.097656 199.183594 L 96.605469 199.183594 C 91.265625 199.183594 86.9375 194.855469 86.9375 189.515625 C 86.9375 184.175781 91.265625 179.847656 96.605469 179.847656 L 277.097656 179.847656 C 282.433594 179.847656 286.765625 184.175781 286.765625 189.515625 C 286.765625 194.855469 282.433594 199.183594 277.097656 199.183594 Z M 277.097656 199.183594 " fill-opacity="1" fill-rule="nonzero"/></g></svg>